{"title":"Black.Swan.2010.BRRiP.720p.x264~PlutO~","uid":6259584,"size":518761276,"categoryP":"video","categoryS":"hd___movies","magnet":"?xt=urn:btih:e4ee0d2c9379927067aa1dd67e392dde9ac1b847&amp;dn=Black.Swan.2010.BRRiP.720p.x264%7EPlutO%7E&amp;tr=udp%3A%2F%2Ftracker.openbittorrent.com%3A80&amp;tr=udp%3A%2F%2Fopen.demonii.com%3A1337&amp;tr=udp%3A%2F%2Ftracker.coppersurfer.tk%3A6969&amp;tr=udp%3A%2F%2Fexodus.desync.com%3A6969","seeders":10,"leechers":0,"uploader":"pluto999","files":-1,"time":1300702463,"description":"Director: Darren Aronofsky\n\nWriters: Mark Heyman (screenplay), Andres Heinz (screenplay), \n\nStars: Natalie Portman, Mila Kunis and Vincent Cassel\n\nPlot:A ballet dancer wins the lead in &quot;Swan Lake&quot; and is perfect for the role of the delicate \nWhite Swan - Princess Odette - but slowly loses her mind as she becomes more and more like Odile \nthe Black Swan, daughter of an evil magician.\n\nPlot Keywords: Dancer | Ballerina | Swan Lake | Ballet | Dance  | \n\nGenres: Drama | Fantasy\n\nMotion Picture Rating (MPAA)\nRated R for strong sexual content, disturbing violent images, language and some drug use.\n\n\n------------------------------------------------------------\n\n\nGeneral\nFormat                           : MPEG-4\nFormat profile                   : Base Media\nCodec ID                         : isom\nFile size                        : 491 MiB\nDuration                         : 1h 48mn\nOverall bit rate                 : 635 Kbps\n\n\nVideo\nID                               : 1\nFormat                           : AVC\nFormat/Info                      : Advanced Video Codec\nFormat profile                   : &lt;a class=&quot;__cf_email__&quot; href=&quot;/cdn-cgi/l/email-protection&quot; data-cfemail=&quot;5b13323c331b176f756b&quot;&gt;[email&amp;#160;protected]&lt;/a&gt;&lt;script cf-hash='f9e31' type=&quot;text/javascript&quot;&gt;\n/* &lt;![CDATA[ */!function(){try{var t=&quot;currentScript&quot;in document?document.currentScript:function(){for(var t=document.getElementsByTagName(&quot;script&quot;),e=t.length;e--;)if(t[e].getAttribute(&quot;cf-hash&quot;))return t[e]}();if(t&amp;&amp;t.previousSibling){var e,r,n,i,c=t.previousSibling,a=c.getAttribute(&quot;data-cfemail&quot;);if(a){for(e=&quot;&quot;,r=parseInt(a.substr(0,2),16),n=2;a.length-n;n+=2)i=parseInt(a.substr(n,2),16)^r,e+=String.fromCharCode(i);e=document.createTextNode(e),c.parentNode.replaceChild(e,c)}}}catch(u){}}();/* ]]&gt; */&lt;/script&gt;\nFormat settings, CABAC           : Yes\nFormat settings, ReFrames        : 8 frames\nCodec ID                         : avc1\nCodec ID/Info                    : Advanced Video Coding\nDuration                         : 1h 48mn\nBit rate mode                    : Variable\nBit rate                         : 597 Kbps\nMaximum bit rate                 : 2 827 Kbps\nWidth                            : 1 264 pixels\nHeight                           : 528 pixels\nDisplay aspect ratio             : 2.35:1\nFrame rate mode                  : Constant\nFrame rate                       : 23.976 fps\nColor space                      : YUV\nChroma subsampling               : 4:2:0\nBit depth                        : 8 bits\nScan type                        : Progressive\nBits/(Pixel*Frame)               : 0.037\n\n\nAudio\nID                               : 2\nFormat                           : AAC\nFormat/Info                      : Advanced Audio Codec\nFormat version                   : Version 4\nFormat profile                   : LC\nFormat settings, SBR             : Yes\nFormat settings, PS              : Yes\nCodec ID                         : 40\nDuration                         : 1h 48mn\nBit rate mode                    : Variable\nBit rate                         : 34.4 Kbps\nMaximum bit rate                 : 41.8 Kbps\nChannel(s)                       : 2 channels\nChannel positions                : Front: L R\nSampling rate                    : 48.0 KHz\n\n\nText #1\nID                               : 3\nFormat                           : Timed text\nCodec ID                         : tx3g\nDuration                         : 1h 42mn\nBit rate mode                    : Variable\nBit rate                         : 33 bps\nStream size                      : 25.1 KiB (0%)\n\n\nText #2\nID                               : 4\nFormat                           : Timed text\nCodec ID                         : tx3g\nDuration                         : 1h 42mn\nBit rate mode                    : Variable\nBit rate                         : 31 bps\nStream size                      : 23.0 KiB (0%)\n\nText #3\nID                               : 5\nFormat                           : Timed text\nCodec ID                         : tx3g\nDuration                         : 1h 42mn\nBit rate mode                    : Variable\nBit rate                         : 45 bps\n\n\n\n------------------------------------------------------------\n                  Comment seed &amp; enjoy!!\n\n**Note: Screenshots included**","torrent":{"xt":"urn:btih:e4ee0d2c9379927067aa1dd67e392dde9ac1b847","amp;dn":"Black.Swan.2010.BRRiP.720p.x264%7EPlutO%7E","amp;tr":["udp%3A%2F%2Ftracker.openbittorrent.com%3A80","udp%3A%2F%2Fopen.demonii.com%3A1337","udp%3A%2F%2Ftracker.coppersurfer.tk%3A6969","udp%3A%2F%2Fexodus.desync.com%3A6969"],"infoHash":"e4ee0d2c9379927067aa1dd67e392dde9ac1b847","infoHashBuffer":{"type":"Buffer","data":[228,238,13,44,147,121,146,112,103,170,29,214,126,57,45,222,154,193,184,71]},"announce":[],"urlList":[]}}